<svg width="24" height="25" viewBox="0 0 24 25" fill="none" xmlns="http://www.w3.org/2000/svg">
<path d="M24 12.25C24 5.62264 18.6274 0.25 12 0.25C5.37264 0.25 0 5.62264 0 12.25C0 17.8775 3.87456 22.5998 9.10128 23.8967V15.9172H6.62688V12.25H9.10128V10.6698C9.10128 6.58552 10.9498 4.6924 14.9597 4.6924C15.72 4.6924 17.0318 4.84168 17.5685 4.99048V8.31448C17.2853 8.28472 16.7933 8.26984 16.1822 8.26984C14.2147 8.26984 13.4544 9.01528 13.4544 10.953V12.25H17.3741L16.7006 15.9172H13.4544V24.1622C19.3954 23.4446 24 18.3854 24 12.25Z" fill="white"/>
</svg>
