<svg width="24" height="25" viewBox="0 0 24 25" fill="none" xmlns="http://www.w3.org/2000/svg">
<path d="M22.2857 0.25C23.1964 0.25 24 1.05357 24 2.01786V22.5357C24 23.5 23.1964 24.25 22.2857 24.25H1.66071C0.75 24.25 0 23.5 0 22.5357V2.01786C0 1.05357 0.75 0.25 1.66071 0.25H22.2857ZM7.23214 20.8214V9.41071H3.69643V20.8214H7.23214ZM5.46429 7.80357C6.58929 7.80357 7.5 6.89286 7.5 5.76786C7.5 4.64286 6.58929 3.67857 5.46429 3.67857C4.28571 3.67857 3.375 4.64286 3.375 5.76786C3.375 6.89286 4.28571 7.80357 5.46429 7.80357ZM20.5714 20.8214V14.5536C20.5714 11.5 19.875 9.08929 16.2857 9.08929C14.5714 9.08929 13.3929 10.0536 12.9107 10.9643H12.8571V9.41071H9.48214V20.8214H13.0179V15.1964C13.0179 13.6964 13.2857 12.25 15.1607 12.25C16.9821 12.25 16.9821 13.9643 16.9821 15.25V20.8214H20.5714Z" fill="white"/>
</svg>
