<svg width="117" height="41" viewBox="0 0 117 41" fill="none" xmlns="http://www.w3.org/2000/svg">
<g clip-path="url(#clip0_19_231)">
<path d="M4.00122 34.3152V20.1613H0.964577V16.2039H8.75267V34.3152H4.00122ZM4.00122 13.5299V9.35864H8.75267V13.5299H4.00122ZM13.1265 34.3152V21.3734L11.0544 18.3073L14.9128 15.776L16.2703 17.8082C16.4132 17.9746 16.5561 18.0696 16.699 18.0934C16.8419 18.0934 16.9967 18.0102 17.1635 17.8439C17.7827 17.2972 18.5686 16.8218 19.5213 16.4178C20.474 15.9899 21.6529 15.776 23.0582 15.776H23.6298V20.0543C21.5338 20.0543 20.0334 20.4227 19.1283 21.1595C18.2233 21.8726 17.7708 22.8947 17.7708 24.2256V34.3152H13.1265Z" fill="white"/>
<path fill-rule="evenodd" clip-rule="evenodd" d="M113.273 10.2123C113.03 10.2372 112.784 10.25 112.534 10.25C108.783 10.25 105.708 7.36569 105.413 3.69833C104.847 3.90064 104.238 4.01087 103.603 4.01087C101.106 4.01087 99.0079 2.30656 98.4131 0H33.0458C31.0727 0 29.4733 1.5962 29.4733 3.56522V37.4348C29.4733 39.4039 31.0727 41 33.0458 41H113.427C115.401 41 117 39.4039 117 37.4348V18.1978C114.466 17.7735 112.534 15.5738 112.534 12.9239C112.534 11.9343 112.804 11.0074 113.273 10.2123Z" fill="#D9D9D9"/>
<path fill-rule="evenodd" clip-rule="evenodd" d="M113.273 10.2123C113.03 10.2372 112.784 10.25 112.534 10.25C108.783 10.25 105.708 7.36569 105.413 3.69833C104.847 3.90064 104.238 4.01087 103.603 4.01087C101.106 4.01087 99.0079 2.30656 98.4131 0H33.0458C31.0727 0 29.4733 1.5962 29.4733 3.56522V37.4348C29.4733 39.4039 31.0727 41 33.0458 41H113.427C115.401 41 117 39.4039 117 37.4348V18.1978C114.466 17.7735 112.534 15.5738 112.534 12.9239C112.534 11.9343 112.804 11.0074 113.273 10.2123Z" fill="#FF3E9B"/>
<path d="M42.7997 32.4827L39.3629 30.2732L41.0152 27.8987V7.35327H45.4103V16.0925C45.8068 15.7627 46.3356 15.4989 46.9965 15.301C47.6795 15.0812 48.3844 14.9712 49.1114 14.9712C51.1163 14.9712 52.6143 15.4549 53.6057 16.4223C54.597 17.3677 55.1809 18.7088 55.3571 20.4456C55.4232 21.0612 55.4672 21.6219 55.4893 22.1275C55.5114 22.6331 55.5223 23.1389 55.5223 23.6445C55.5223 24.0842 55.5002 24.524 55.4562 24.9637C55.4341 25.4033 55.4011 25.898 55.3571 26.4477C55.2028 28.3165 54.553 29.7785 53.4074 30.8338C52.2617 31.8891 50.6646 32.4167 48.6157 32.4167C47.8447 32.4167 47.1287 32.2958 46.4678 32.054C45.8289 31.7902 45.223 31.4495 44.6502 31.0317C44.3198 30.8117 44.0554 30.8338 43.8571 31.0976L42.7997 32.4827ZM48.2192 28.7232C49.1666 28.7232 49.8494 28.5033 50.268 28.0636C50.6867 27.624 50.9289 27.0852 50.995 26.4477C51.0832 25.5243 51.1272 24.6118 51.1272 23.7105C51.1272 22.8092 51.0832 21.8967 50.995 20.9733C50.9289 20.3137 50.6755 19.7641 50.235 19.3244C49.7944 18.8627 49.1224 18.6318 48.2192 18.6318C47.2718 18.6318 46.5669 18.8627 46.1043 19.3244C45.6416 19.7641 45.4103 20.3687 45.4103 21.1382V26.2498C45.4103 26.9974 45.6526 27.6019 46.1373 28.0636C46.622 28.5033 47.316 28.7232 48.2192 28.7232ZM59.7995 32.087V18.9946H56.9906V15.334H64.1946V32.087H59.7995ZM59.7995 12.8606V9.00218H64.1946V12.8606H59.7995ZM72.7014 32.054C71.556 32.054 70.6196 31.7021 69.8925 30.9987C69.1655 30.2732 68.802 29.3498 68.802 28.2285V18.8957H66.1253V15.334H68.3063C68.5046 15.334 68.6589 15.279 68.769 15.1691C68.8793 15.0372 68.9784 14.7624 69.0664 14.3447C69.1767 13.905 69.3089 13.2234 69.4629 12.3L69.6282 11.3107H73.0649V15.334H76.1382V18.8957H73.0649V27.5689C73.0649 27.7889 73.1201 27.9647 73.2302 28.0966C73.3624 28.2285 73.5387 28.2945 73.7589 28.2945H76.3695V32.054H72.7014ZM86.158 32.4167C84.6821 32.4167 83.3933 32.175 82.2916 31.6912C81.1902 31.1856 80.3089 30.504 79.648 29.6466C78.9871 28.7671 78.5686 27.7889 78.3922 26.7115C78.3261 26.1839 78.2712 25.7001 78.227 25.2605C78.2051 24.7988 78.194 24.3371 78.194 23.8754C78.194 22.9959 78.2601 22.0176 78.3922 20.9403C78.6347 19.2474 79.3396 17.8404 80.5072 16.7191C81.6749 15.5758 83.25 15.0042 85.2327 15.0042C86.4666 15.0042 87.524 15.2021 88.4051 15.5978C89.2864 15.9936 90.0025 16.5542 90.5531 17.2797C91.1039 17.9833 91.5005 18.8297 91.7427 19.8191C91.9852 20.7864 92.1062 21.8637 92.1062 23.0509L91.4453 24.7658H79.4497L79.4167 21.6658H88.1077C88.0858 21.1382 87.9867 20.6325 87.8103 20.1488C87.6562 19.6651 87.3698 19.2694 86.9511 18.9616C86.5546 18.6538 85.9928 18.4999 85.2658 18.4999C84.2965 18.4999 83.5804 18.8077 83.1178 19.4233C82.6551 20.0169 82.4019 20.7974 82.3577 21.7648C82.3137 22.3363 82.2807 22.9629 82.2586 23.6445C82.2586 24.3041 82.2916 25.0076 82.3577 25.7551C82.468 26.8325 82.8534 27.6128 83.5143 28.0966C84.1974 28.5804 85.0787 28.8221 86.158 28.8221C86.841 28.8221 87.5019 28.7341 88.1408 28.5583C88.7798 28.3604 89.4295 28.0857 90.0905 27.7338L91.214 30.8997C90.443 31.4274 89.639 31.8122 88.8017 32.054C87.9867 32.2958 87.1054 32.4167 86.158 32.4167ZM100.066 32.4497C98.8101 32.4497 97.7084 32.3069 96.7612 32.021C95.8138 31.7133 94.8334 31.2295 93.8202 30.57L95.0759 27.3381C95.7808 27.7777 96.3977 28.1075 96.9265 28.3274C97.4552 28.5474 97.9618 28.7011 98.4466 28.7891C98.9532 28.8551 99.504 28.8881 100.099 28.8881C101.002 28.8881 101.663 28.7123 102.082 28.3604C102.5 28.0086 102.709 27.5689 102.709 27.0413C102.709 26.6235 102.555 26.2607 102.247 25.953C101.96 25.6453 101.498 25.4804 100.859 25.4583L99.0414 25.3594C97.5213 25.2714 96.2655 24.8538 95.2742 24.1062C94.3047 23.3368 93.8202 22.1275 93.8202 20.4786C93.8202 18.7418 94.4038 17.3896 95.5716 16.4223C96.7612 15.4329 98.3474 14.9383 100.33 14.9383C101.498 14.9383 102.533 15.0592 103.436 15.301C104.34 15.5209 105.221 15.9056 106.08 16.4553L104.824 19.6542C104.163 19.2364 103.47 18.9396 102.743 18.7637C102.037 18.5879 101.233 18.4999 100.33 18.4999C99.4489 18.4999 98.777 18.6648 98.3144 18.9946C97.8736 19.3024 97.6535 19.7091 97.6535 20.2148C97.6535 20.6325 97.8075 20.9623 98.1161 21.2041C98.4245 21.446 98.8431 21.5889 99.3719 21.6329L101.222 21.7318C102.853 21.8197 104.152 22.2814 105.122 23.1169C106.091 23.9523 106.576 25.1724 106.576 26.7775C106.576 28.6022 105.992 30.0093 104.824 30.9987C103.657 31.966 102.07 32.4497 100.066 32.4497Z" fill="white"/>
</g>
<defs>
<clipPath id="clip0_19_231">
<rect width="117" height="41" fill="white"/>
</clipPath>
</defs>
</svg>
