<svg width="24" height="18" viewBox="0 0 24 18" fill="none" xmlns="http://www.w3.org/2000/svg">
<path d="M23.4735 2.92642C24 4.7692 24 8.71801 24 8.71801C24 8.71801 24 12.6229 23.4735 14.5096C23.2102 15.5626 22.3766 16.3524 21.3675 16.6156C19.4808 17.0983 12.0219 17.0983 12.0219 17.0983C12.0219 17.0983 4.5192 17.0983 2.63254 16.6156C1.6234 16.3524 0.789762 15.5626 0.526508 14.5096C0 12.6229 0 8.71801 0 8.71801C0 8.71801 0 4.7692 0.526508 2.92642C0.789762 1.8734 1.6234 1.03976 2.63254 0.776508C4.5192 0.25 12.0219 0.25 12.0219 0.25C12.0219 0.25 19.4808 0.25 21.3675 0.776508C22.3766 1.03976 23.2102 1.8734 23.4735 2.92642ZM9.5649 12.2719L15.7952 8.71801L9.5649 5.16408V12.2719Z" fill="white"/>
</svg>
